<svg xmlns="http://www.w3.org/2000/svg" viewBox="0 0 1200 800" width="100%" height="100%" style="background:#090c10; font-family:'Inter', sans-serif;">
  <defs>
    <linearGradient id="cyanGlow" x1="0%" y1="0%" x2="100%" y2="100%">
      <stop offset="0%" stop-color="#06b6d4" stop-opacity="0.8"/>
      <stop offset="100%" stop-color="#3b82f6" stop-opacity="0.8"/>
    </linearGradient>
    <linearGradient id="purpleGlow" x1="0%" y1="0%" x2="100%" y2="100%">
      <stop offset="0%" stop-color="#8b5cf6" stop-opacity="0.8"/>
      <stop offset="100%" stop-color="#ec4899" stop-opacity="0.8"/>
    </linearGradient>
  </defs>

  <!-- Top Bar / Header -->
  <rect x="20" y="20" width="1160" height="50" rx="8" fill="#131924" stroke="rgba(255,255,255,0.08)" stroke-width="1"/>
  <circle cx="45" cy="45" r="6" fill="#ef4444"/>
  <circle cx="65" cy="45" r="6" fill="#f59e0b"/>
  <circle cx="85" cy="45" r="6" fill="#10b981"/>
  <text x="110" y="50" fill="#e6edf3" font-size="14" font-weight="600" font-family="'JetBrains Mono', monospace">JARVIS COMMAND CONSOLE v2.2</text>
  
  <rect x="940" y="33" width="110" height="24" rx="12" fill="rgba(16,185,129,0.1)" stroke="#10b981" stroke-width="1"/>
  <circle cx="955" cy="45" r="4" fill="#10b981"/>
  <text x="965" y="49" fill="#10b981" font-size="11" font-family="'JetBrains Mono', monospace">SYSTEM: OK</text>
  
  <rect x="1060" y="33" width="100" height="24" rx="12" fill="rgba(6,182,212,0.1)" stroke="#06b6d4" stroke-width="1"/>
  <circle cx="1075" cy="45" r="4" fill="#06b6d4"/>
  <text x="1085" y="49" fill="#06b6d4" font-size="11" font-family="'JetBrains Mono', monospace">MEM: SYNC</text>

  <!-- Main Console Body -->
  <rect x="20" y="85" width="1160" height="600" rx="8" fill="#0d1117" stroke="rgba(255,255,255,0.06)" stroke-width="1"/>

  <!-- Golden Flow Progress Stepper Banner -->
  <rect x="40" y="105" width="1120" height="45" rx="6" fill="#161b22" stroke="rgba(255,255,255,0.05)" stroke-width="1"/>
  <text x="55" y="132" fill="#8b949e" font-size="12" font-family="'JetBrains Mono', monospace">GOLDEN FLOW:</text>
  
  <!-- Step 1: CEO (Active) -->
  <rect x="160" y="117" width="110" height="22" rx="4" fill="rgba(139,92,246,0.2)" stroke="#8b5cf6" stroke-width="1"/>
  <text x="172" y="132" fill="#a78bfa" font-size="11" font-weight="600" font-family="'JetBrains Mono', monospace">✓ ceo-agent</text>

  <!-- Connector -->
  <line x1="275" y1="128" x2="295" y2="128" stroke="#8b5cf6" stroke-width="2"/>

  <!-- Step 2: Team (Active) -->
  <rect x="300" y="117" width="115" height="22" rx="4" fill="rgba(59,130,246,0.2)" stroke="#3b82f6" stroke-width="1"/>
  <text x="312" y="132" fill="#60a5fa" font-size="11" font-weight="600" font-family="'JetBrains Mono', monospace">✓ team-agent</text>

  <!-- Connector -->
  <line x1="420" y1="128" x2="440" y2="128" stroke="#3b82f6" stroke-width="2"/>

  <!-- Step 3: SaaS Builder (In Progress) -->
  <rect x="445" y="117" width="130" height="22" rx="4" fill="rgba(6,182,212,0.25)" stroke="#06b6d4" stroke-width="1.5"/>
  <text x="457" y="132" fill="#22d3ee" font-size="11" font-weight="600" font-family="'JetBrains Mono', monospace">▶ saas-builder</text>

  <!-- Connector -->
  <line x1="580" y1="128" x2="600" y2="128" stroke="#8b949e" stroke-dasharray="3 3" stroke-width="1.5"/>

  <!-- Step 4: Test (Queued) -->
  <rect x="605" y="117" width="110" height="22" rx="4" fill="#21262d" stroke="#30363d" stroke-width="1"/>
  <text x="617" y="132" fill="#8b949e" font-size="11" font-family="'JetBrains Mono', monospace">test-agent</text>

  <!-- Connector -->
  <line x1="720" y1="128" x2="740" y2="128" stroke="#8b949e" stroke-dasharray="3 3" stroke-width="1.5"/>

  <!-- Step 5: DevOps (Queued) -->
  <rect x="745" y="117" width="120" height="22" rx="4" fill="#21262d" stroke="#30363d" stroke-width="1"/>
  <text x="757" y="132" fill="#8b949e" font-size="11" font-family="'JetBrains Mono', monospace">devops-agent</text>

  <!-- User Request Message Bubble -->
  <rect x="40" y="170" width="1120" height="60" rx="8" fill="#161b22" stroke="rgba(255,255,255,0.06)" stroke-width="1"/>
  <rect x="55" y="185" width="60" height="20" rx="4" fill="rgba(255,255,255,0.1)"/>
  <text x="63" y="199" fill="#e6edf3" font-size="11" font-weight="600" font-family="'JetBrains Mono', monospace">USER</text>
  <text x="130" y="205" fill="#e6edf3" font-size="14">"Let's add a subscription upgrade flow to AgencyOS with Razorpay payment reconciliation."</text>

  <!-- Memory Pre-Flight Callout Banner -->
  <rect x="40" y="245" width="1120" height="65" rx="8" fill="rgba(59, 130, 246, 0.08)" stroke="#3b82f6" stroke-width="1"/>
  <!-- SVG Info Shield Icon -->
  <path d="M60 265 L70 260 L80 265 L80 275 Q80 285 70 290 Q60 285 60 275 Z" fill="none" stroke="#60a5fa" stroke-width="2"/>
  <text x="95" y="272" fill="#60a5fa" font-size="12" font-weight="600" font-family="'JetBrains Mono', monospace">MEMORY PRE-FLIGHT CHECK (decisions-log.md &amp; mistakes-log.md)</text>
  <text x="95" y="293" fill="#c9d1d9" font-size="13">Heads up: Previous Razorpay webhook implementation (2026-07-13) required mandatory signature verification before DB updates.</text>

  <!-- Agent Response 1: CEO Agent -->
  <rect x="40" y="325" width="1120" height="90" rx="8" fill="#161b22" stroke="rgba(139,92,246,0.3)" stroke-width="1"/>
  <rect x="55" y="340" width="95" height="22" rx="4" fill="rgba(139,92,246,0.2)" stroke="#8b5cf6" stroke-width="1"/>
  <text x="65" y="355" fill="#a78bfa" font-size="11" font-weight="600" font-family="'JetBrains Mono', monospace">ceo-agent</text>
  <text x="160" y="355" fill="#8b949e" font-size="11" font-family="'JetBrains Mono', monospace">14:15:02 PST</text>
  <text x="55" y="385" fill="#e6edf3" font-size="14">APPROVED: Feature passes Clarity Framework validation (High recurring revenue impact for AgencyOS). Routing Golden Flow: saas-builder for PRD &amp; TRD updates.</text>

  <!-- Agent Response 2: SaaS Builder Agent (Streaming) -->
  <rect x="40" y="430" width="1120" height="120" rx="8" fill="#161b22" stroke="rgba(6,182,212,0.3)" stroke-width="1"/>
  <rect x="55" y="445" width="115" height="22" rx="4" fill="rgba(6,182,212,0.2)" stroke="#06b6d4" stroke-width="1"/>
  <text x="65" y="460" fill="#22d3ee" font-size="11" font-weight="600" font-family="'JetBrains Mono', monospace">saas-builder</text>
  <text x="180" y="460" fill="#8b949e" font-size="11" font-family="'JetBrains Mono', monospace">14:15:08 PST</text>
  <text x="55" y="490" fill="#e6edf3" font-size="14">PRD &amp; TRD updated. Created webhook schema in src/mastra/tools/agencyos-billing-webhook.ts with Zod payload validation.</text>
  <text x="55" y="515" fill="#8b949e" font-size="13" font-family="'JetBrains Mono', monospace">> Handing off to test-agent for independent security review...</text>
  <rect x="550" y="504" width="8" height="14" fill="#06b6d4"/>

  <!-- Footer Input Composer Bar (Dual Text + Voice) -->
  <rect x="20" y="700" width="1160" height="75" rx="10" fill="#131924" stroke="#06b6d4" stroke-width="1.5"/>

  <!-- Voice Mic Toggle (Active Listening Waveform State) -->
  <rect x="35" y="715" width="45" height="45" rx="8" fill="rgba(6,182,212,0.15)" stroke="#06b6d4" stroke-width="1.5"/>
  <!-- SVG Mic Icon -->
  <rect x="52" y="725" width="10" height="16" rx="5" fill="#06b6d4"/>
  <path d="M47 735 A 15 15 0 0 0 67 735" fill="none" stroke="#06b6d4" stroke-width="2" stroke-linecap="round"/>
  <line x1="57" y1="750" x2="57" y2="754" stroke="#06b6d4" stroke-width="2"/>

  <!-- Live Voice Listening Waveform Micro-animation -->
  <rect x="90" y="728" width="60" height="20" rx="4" fill="rgba(6,182,212,0.1)"/>
  <line x1="98" y1="738" x2="98" y2="742" stroke="#06b6d4" stroke-width="2" stroke-linecap="round"/>
  <line x1="104" y1="733" x2="104" y2="747" stroke="#06b6d4" stroke-width="2" stroke-linecap="round"/>
  <line x1="110" y1="730" x2="110" y2="750" stroke="#06b6d4" stroke-width="2.5" stroke-linecap="round"/>
  <line x1="116" y1="735" x2="116" y2="745" stroke="#06b6d4" stroke-width="2" stroke-linecap="round"/>
  <line x1="122" y1="737" x2="122" y2="743" stroke="#06b6d4" stroke-width="2" stroke-linecap="round"/>
  <text x="158" y="742" fill="#06b6d4" font-size="11" font-family="'JetBrains Mono', monospace">LISTENING (REAL-TIME TRANSCRIPT filling composer below)</text>

  <!-- Primary Editable Text Composer Input Box -->
  <text x="90" y="760" fill="#e6edf3" font-size="14">Run independent security check on agencyos-billing-webhook.ts before deploy preparation...</text>

  <!-- SVG Send Button -->
  <rect x="1115" y="715" width="45" height="45" rx="8" fill="url(#cyanGlow)"/>
  <path d="M1130 738 L1145 730 L1138 745 L1134 739 Z" fill="#090c10"/>
</svg>